<svg xmlns="http://www.w3.org/2000/svg" xmlns:xlink="http://www.w3.org/1999/xlink" version="1.1" class="marks" width="310.5596103067893" height="310.5596103067893" viewBox="0 0 310.5596103067893 310.5596103067893"><g fill="none" stroke-miterlimit="10" transform="translate(28,28)"><g class="mark-group role-frame root" role="graphics-object" aria-roledescription="group mark container"><g transform="translate(0,0)"><path class="background" aria-hidden="true" d="M0,0h254.5596103067893v254.5596103067893h-254.5596103067893Z"/><g><g class="mark-rect role-mark" role="graphics-symbol" aria-roledescription="rect mark container"><path d="M0,0h254.5596103067893v254.5596103067893h-254.5596103067893Z" fill="#CCC"/></g><g class="mark-symbol role-mark" role="graphics-symbol" aria-roledescription="symbol mark container"><path transform="translate(63.64,63.64)" d="M-0.8660254037844386,-0.34641016151377546L-0.8660254037844386,0.34641016151377546L-0.34641016151377546,0.34641016151377546L-0.34641016151377546,0.8660254037844386L0.34641016151377546,0.8660254037844386L0.34641016151377546,0.34641016151377546L0.8660254037844386,0.34641016151377546L0.8660254037844386,-0.34641016151377546L0.34641016151377546,-0.34641016151377546L0.34641016151377546,-0.8660254037844386L-0.34641016151377546,-0.8660254037844386L-0.34641016151377546,-0.34641016151377546Z" fill="#000"/><path transform="translate(190.92000000000002,63.64)" d="M-0.8660254037844386,-0.34641016151377546L-0.8660254037844386,0.34641016151377546L-0.34641016151377546,0.34641016151377546L-0.34641016151377546,0.8660254037844386L0.34641016151377546,0.8660254037844386L0.34641016151377546,0.34641016151377546L0.8660254037844386,0.34641016151377546L0.8660254037844386,-0.34641016151377546L0.34641016151377546,-0.34641016151377546L0.34641016151377546,-0.8660254037844386L-0.34641016151377546,-0.8660254037844386L-0.34641016151377546,-0.34641016151377546Z" fill="#000"/><path transform="translate(63.64,190.92000000000002)" d="M-0.8660254037844386,-0.34641016151377546L-0.8660254037844386,0.34641016151377546L-0.34641016151377546,0.34641016151377546L-0.34641016151377546,0.8660254037844386L0.34641016151377546,0.8660254037844386L0.34641016151377546,0.34641016151377546L0.8660254037844386,0.34641016151377546L0.8660254037844386,-0.34641016151377546L0.34641016151377546,-0.34641016151377546L0.34641016151377546,-0.8660254037844386L-0.34641016151377546,-0.8660254037844386L-0.34641016151377546,-0.34641016151377546Z" fill="#000"/><path transform="translate(190.92000000000002,190.92000000000002)" d="M-0.8660254037844386,-0.34641016151377546L-0.8660254037844386,0.34641016151377546L-0.34641016151377546,0.34641016151377546L-0.34641016151377546,0.8660254037844386L0.34641016151377546,0.8660254037844386L0.34641016151377546,0.34641016151377546L0.8660254037844386,0.34641016151377546L0.8660254037844386,-0.34641016151377546L0.34641016151377546,-0.34641016151377546L0.34641016151377546,-0.8660254037844386L-0.34641016151377546,-0.8660254037844386L-0.34641016151377546,-0.34641016151377546Z" fill="#000"/></g><g class="mark-rect role-mark" role="graphics-symbol" aria-roledescription="rect mark container"><path d="M63.64,-26.36L63.639999999999986,-26.36C113.31235220445998,-26.36,153.64,13.967647795540003,153.64,63.64L153.64,63.639999999999986C153.64,113.31235220445998,113.31235220445998,153.64,63.639999999999986,153.64L63.64,153.64C13.967647795540003,153.64,-26.36,113.31235220445998,-26.36,63.639999999999986L-26.36,63.64C-26.36,13.967647795540003,13.967647795540003,-26.36,63.64,-26.36Z" stroke="#000" stroke-width="1"/><path d="M190.92000000000002,-26.36L190.92000000000002,-26.36C240.59235220446,-26.36,280.92,13.967647795540003,280.92,63.64L280.92,63.639999999999986C280.92,113.31235220445998,240.59235220446,153.64,190.92000000000002,153.64L190.92000000000002,153.64C141.24764779554,153.64,100.92,113.31235220445998,100.92,63.639999999999986L100.92,63.64C100.92,13.967647795540003,141.24764779554,-26.36,190.92000000000002,-26.36Z" stroke="#000" stroke-width="1"/><path d="M63.64,100.92L63.639999999999986,100.92C113.31235220445998,100.92,153.64,141.24764779554,153.64,190.92000000000002L153.64,190.92000000000002C153.64,240.59235220446,113.31235220445998,280.92,63.639999999999986,280.92L63.64,280.92C13.967647795540003,280.92,-26.36,240.59235220446,-26.36,190.92000000000002L-26.36,190.92000000000002C-26.36,141.24764779554,13.967647795540003,100.92,63.64,100.92Z" stroke="#000" stroke-width="1"/><path d="M190.92000000000002,100.92L190.92000000000002,100.92C240.59235220446,100.92,280.92,141.24764779554,280.92,190.92000000000002L280.92,190.92000000000002C280.92,240.59235220446,240.59235220446,280.92,190.92000000000002,280.92L190.92000000000002,280.92C141.24764779554,280.92,100.92,240.59235220446,100.92,190.92000000000002L100.92,190.92000000000002C100.92,141.24764779554,141.24764779554,100.92,190.92000000000002,100.92Z" stroke="#000" stroke-width="1"/></g><g class="mark-symbol role-mark" role="graphics-symbol" aria-roledescription="symbol mark container"><path transform="translate(104.85000000000001,176.62)" d="M0.7071067811865476,0A0.7071067811865476,0.7071067811865476,0,1,1,-0.7071067811865476,0A0.7071067811865476,0.7071067811865476,0,1,1,0.7071067811865476,0" fill="blue"/><path transform="translate(91.56,132.97)" d="M0.7071067811865476,0A0.7071067811865476,0.7071067811865476,0,1,1,-0.7071067811865476,0A0.7071067811865476,0.7071067811865476,0,1,1,0.7071067811865476,0" fill="blue"/><path transform="translate(199.8,155.29)" d="M0.7071067811865476,0A0.7071067811865476,0.7071067811865476,0,1,1,-0.7071067811865476,0A0.7071067811865476,0.7071067811865476,0,1,1,0.7071067811865476,0" fill="blue"/><path transform="translate(119.99000000000001,61.95)" d="M0.7071067811865476,0A0.7071067811865476,0.7071067811865476,0,1,1,-0.7071067811865476,0A0.7071067811865476,0.7071067811865476,0,1,1,0.7071067811865476,0" fill="blue"/><path transform="translate(7.55,170.15)" d="M0.7071067811865476,0A0.7071067811865476,0.7071067811865476,0,1,1,-0.7071067811865476,0A0.7071067811865476,0.7071067811865476,0,1,1,0.7071067811865476,0" fill="blue"/><path transform="translate(195.70000000000002,125.78)" d="M0.7071067811865476,0A0.7071067811865476,0.7071067811865476,0,1,1,-0.7071067811865476,0A0.7071067811865476,0.7071067811865476,0,1,1,0.7071067811865476,0" fill="blue"/><path transform="translate(110.46000000000001,84.31)" d="M0.7071067811865476,0A0.7071067811865476,0.7071067811865476,0,1,1,-0.7071067811865476,0A0.7071067811865476,0.7071067811865476,0,1,1,0.7071067811865476,0" fill="blue"/><path transform="translate(20.32,140.58)" d="M0.7071067811865476,0A0.7071067811865476,0.7071067811865476,0,1,1,-0.7071067811865476,0A0.7071067811865476,0.7071067811865476,0,1,1,0.7071067811865476,0" fill="blue"/><path transform="translate(140.41,91.72)" d="M0.7071067811865476,0A0.7071067811865476,0.7071067811865476,0,1,1,-0.7071067811865476,0A0.7071067811865476,0.7071067811865476,0,1,1,0.7071067811865476,0" fill="blue"/><path transform="translate(84.4,93.95)" d="M0.7071067811865476,0A0.7071067811865476,0.7071067811865476,0,1,1,-0.7071067811865476,0A0.7071067811865476,0.7071067811865476,0,1,1,0.7071067811865476,0" fill="blue"/><path transform="translate(226.11,141.16)" d="M0.7071067811865476,0A0.7071067811865476,0.7071067811865476,0,1,1,-0.7071067811865476,0A0.7071067811865476,0.7071067811865476,0,1,1,0.7071067811865476,0" fill="blue"/><path transform="translate(47.52,231.48000000000002)" d="M0.7071067811865476,0A0.7071067811865476,0.7071067811865476,0,1,1,-0.7071067811865476,0A0.7071067811865476,0.7071067811865476,0,1,1,0.7071067811865476,0" fill="blue"/><path transform="translate(201.63,29.96)" d="M0.7071067811865476,0A0.7071067811865476,0.7071067811865476,0,1,1,-0.7071067811865476,0A0.7071067811865476,0.7071067811865476,0,1,1,0.7071067811865476,0" fill="blue"/><path transform="translate(55.14,89.07000000000001)" d="M0.7071067811865476,0A0.7071067811865476,0.7071067811865476,0,1,1,-0.7071067811865476,0A0.7071067811865476,0.7071067811865476,0,1,1,0.7071067811865476,0" fill="blue"/><path transform="translate(193.09,92.83)" d="M0.7071067811865476,0A0.7071067811865476,0.7071067811865476,0,1,1,-0.7071067811865476,0A0.7071067811865476,0.7071067811865476,0,1,1,0.7071067811865476,0" fill="blue"/><path transform="translate(37.910000000000004,65.85)" d="M0.7071067811865476,0A0.7071067811865476,0.7071067811865476,0,1,1,-0.7071067811865476,0A0.7071067811865476,0.7071067811865476,0,1,1,0.7071067811865476,0" fill="blue"/><path transform="translate(57.49,5.99)" d="M0.7071067811865476,0A0.7071067811865476,0.7071067811865476,0,1,1,-0.7071067811865476,0A0.7071067811865476,0.7071067811865476,0,1,1,0.7071067811865476,0" fill="blue"/><path transform="translate(129.59,21.48)" d="M0.7071067811865476,0A0.7071067811865476,0.7071067811865476,0,1,1,-0.7071067811865476,0A0.7071067811865476,0.7071067811865476,0,1,1,0.7071067811865476,0" fill="blue"/><path transform="translate(93.92,128.54)" d="M0.7071067811865476,0A0.7071067811865476,0.7071067811865476,0,1,1,-0.7071067811865476,0A0.7071067811865476,0.7071067811865476,0,1,1,0.7071067811865476,0" fill="blue"/><path transform="translate(12.42,1.35)" d="M0.7071067811865476,0A0.7071067811865476,0.7071067811865476,0,1,1,-0.7071067811865476,0A0.7071067811865476,0.7071067811865476,0,1,1,0.7071067811865476,0" fill="blue"/><path transform="translate(161.04,187.54)" d="M0.7071067811865476,0A0.7071067811865476,0.7071067811865476,0,1,1,-0.7071067811865476,0A0.7071067811865476,0.7071067811865476,0,1,1,0.7071067811865476,0" fill="blue"/><path transform="translate(24.36,66.61)" d="M0.7071067811865476,0A0.7071067811865476,0.7071067811865476,0,1,1,-0.7071067811865476,0A0.7071067811865476,0.7071067811865476,0,1,1,0.7071067811865476,0" fill="blue"/><path transform="translate(180.79,49.76)" d="M0.7071067811865476,0A0.7071067811865476,0.7071067811865476,0,1,1,-0.7071067811865476,0A0.7071067811865476,0.7071067811865476,0,1,1,0.7071067811865476,0" fill="blue"/><path transform="translate(33.52,100.91)" d="M0.7071067811865476,0A0.7071067811865476,0.7071067811865476,0,1,1,-0.7071067811865476,0A0.7071067811865476,0.7071067811865476,0,1,1,0.7071067811865476,0" fill="blue"/><path transform="translate(103.58,237.12)" d="M0.7071067811865476,0A0.7071067811865476,0.7071067811865476,0,1,1,-0.7071067811865476,0A0.7071067811865476,0.7071067811865476,0,1,1,0.7071067811865476,0" fill="blue"/><path transform="translate(177.22,67.76)" d="M0.7071067811865476,0A0.7071067811865476,0.7071067811865476,0,1,1,-0.7071067811865476,0A0.7071067811865476,0.7071067811865476,0,1,1,0.7071067811865476,0" fill="blue"/><path transform="translate(42.61,94.86)" d="M0.7071067811865476,0A0.7071067811865476,0.7071067811865476,0,1,1,-0.7071067811865476,0A0.7071067811865476,0.7071067811865476,0,1,1,0.7071067811865476,0" fill="blue"/><path transform="translate(95.82000000000001,135.3)" d="M0.7071067811865476,0A0.7071067811865476,0.7071067811865476,0,1,1,-0.7071067811865476,0A0.7071067811865476,0.7071067811865476,0,1,1,0.7071067811865476,0" fill="blue"/><path transform="translate(230.65,208.87)" d="M0.7071067811865476,0A0.7071067811865476,0.7071067811865476,0,1,1,-0.7071067811865476,0A0.7071067811865476,0.7071067811865476,0,1,1,0.7071067811865476,0" fill="blue"/><path transform="translate(22.35,81.02)" d="M0.7071067811865476,0A0.7071067811865476,0.7071067811865476,0,1,1,-0.7071067811865476,0A0.7071067811865476,0.7071067811865476,0,1,1,0.7071067811865476,0" fill="blue"/><path transform="translate(133.36,17.09)" d="M0.7071067811865476,0A0.7071067811865476,0.7071067811865476,0,1,1,-0.7071067811865476,0A0.7071067811865476,0.7071067811865476,0,1,1,0.7071067811865476,0" fill="blue"/><path transform="translate(157.07,45.39)" d="M0.7071067811865476,0A0.7071067811865476,0.7071067811865476,0,1,1,-0.7071067811865476,0A0.7071067811865476,0.7071067811865476,0,1,1,0.7071067811865476,0" fill="blue"/><path transform="translate(161.95000000000002,115.77)" d="M0.7071067811865476,0A0.7071067811865476,0.7071067811865476,0,1,1,-0.7071067811865476,0A0.7071067811865476,0.7071067811865476,0,1,1,0.7071067811865476,0" fill="blue"/><path transform="translate(199.54,65.95)" d="M0.7071067811865476,0A0.7071067811865476,0.7071067811865476,0,1,1,-0.7071067811865476,0A0.7071067811865476,0.7071067811865476,0,1,1,0.7071067811865476,0" fill="blue"/><path transform="translate(29.87,159.6)" d="M0.7071067811865476,0A0.7071067811865476,0.7071067811865476,0,1,1,-0.7071067811865476,0A0.7071067811865476,0.7071067811865476,0,1,1,0.7071067811865476,0" fill="blue"/><path transform="translate(96.32000000000001,221.51)" d="M0.7071067811865476,0A0.7071067811865476,0.7071067811865476,0,1,1,-0.7071067811865476,0A0.7071067811865476,0.7071067811865476,0,1,1,0.7071067811865476,0" fill="blue"/><path transform="translate(97.85000000000001,42.79)" d="M0.7071067811865476,0A0.7071067811865476,0.7071067811865476,0,1,1,-0.7071067811865476,0A0.7071067811865476,0.7071067811865476,0,1,1,0.7071067811865476,0" fill="blue"/><path transform="translate(96.17,47.27)" d="M0.7071067811865476,0A0.7071067811865476,0.7071067811865476,0,1,1,-0.7071067811865476,0A0.7071067811865476,0.7071067811865476,0,1,1,0.7071067811865476,0" fill="blue"/><path transform="translate(4.75,78.74)" d="M0.7071067811865476,0A0.7071067811865476,0.7071067811865476,0,1,1,-0.7071067811865476,0A0.7071067811865476,0.7071067811865476,0,1,1,0.7071067811865476,0" fill="blue"/><path transform="translate(80.93,245.14000000000001)" d="M0.7071067811865476,0A0.7071067811865476,0.7071067811865476,0,1,1,-0.7071067811865476,0A0.7071067811865476,0.7071067811865476,0,1,1,0.7071067811865476,0" fill="blue"/><path transform="translate(75.11,17.43)" d="M0.7071067811865476,0A0.7071067811865476,0.7071067811865476,0,1,1,-0.7071067811865476,0A0.7071067811865476,0.7071067811865476,0,1,1,0.7071067811865476,0" fill="blue"/><path transform="translate(134.52,103.71000000000001)" d="M0.7071067811865476,0A0.7071067811865476,0.7071067811865476,0,1,1,-0.7071067811865476,0A0.7071067811865476,0.7071067811865476,0,1,1,0.7071067811865476,0" fill="blue"/><path transform="translate(222.32,249.1)" d="M0.7071067811865476,0A0.7071067811865476,0.7071067811865476,0,1,1,-0.7071067811865476,0A0.7071067811865476,0.7071067811865476,0,1,1,0.7071067811865476,0" fill="blue"/><path transform="translate(117.06,234.22)" d="M0.7071067811865476,0A0.7071067811865476,0.7071067811865476,0,1,1,-0.7071067811865476,0A0.7071067811865476,0.7071067811865476,0,1,1,0.7071067811865476,0" fill="blue"/><path transform="translate(200.25,110.3)" d="M0.7071067811865476,0A0.7071067811865476,0.7071067811865476,0,1,1,-0.7071067811865476,0A0.7071067811865476,0.7071067811865476,0,1,1,0.7071067811865476,0" fill="blue"/><path transform="translate(13.83,230.07)" d="M0.7071067811865476,0A0.7071067811865476,0.7071067811865476,0,1,1,-0.7071067811865476,0A0.7071067811865476,0.7071067811865476,0,1,1,0.7071067811865476,0" fill="blue"/><path transform="translate(190.38,122.76)" d="M0.7071067811865476,0A0.7071067811865476,0.7071067811865476,0,1,1,-0.7071067811865476,0A0.7071067811865476,0.7071067811865476,0,1,1,0.7071067811865476,0" fill="blue"/><path transform="translate(194.42000000000002,251.49)" d="M0.7071067811865476,0A0.7071067811865476,0.7071067811865476,0,1,1,-0.7071067811865476,0A0.7071067811865476,0.7071067811865476,0,1,1,0.7071067811865476,0" fill="blue"/><path transform="translate(96.89,158.52)" d="M0.7071067811865476,0A0.7071067811865476,0.7071067811865476,0,1,1,-0.7071067811865476,0A0.7071067811865476,0.7071067811865476,0,1,1,0.7071067811865476,0" fill="blue"/><path transform="translate(111.72,22.740000000000002)" d="M0.7071067811865476,0A0.7071067811865476,0.7071067811865476,0,1,1,-0.7071067811865476,0A0.7071067811865476,0.7071067811865476,0,1,1,0.7071067811865476,0" fill="blue"/><path transform="translate(19.35,230.96)" d="M0.7071067811865476,0A0.7071067811865476,0.7071067811865476,0,1,1,-0.7071067811865476,0A0.7071067811865476,0.7071067811865476,0,1,1,0.7071067811865476,0" fill="blue"/><path transform="translate(184.48,197.77)" d="M0.7071067811865476,0A0.7071067811865476,0.7071067811865476,0,1,1,-0.7071067811865476,0A0.7071067811865476,0.7071067811865476,0,1,1,0.7071067811865476,0" fill="blue"/><path transform="translate(143.6,244.59)" d="M0.7071067811865476,0A0.7071067811865476,0.7071067811865476,0,1,1,-0.7071067811865476,0A0.7071067811865476,0.7071067811865476,0,1,1,0.7071067811865476,0" fill="blue"/><path transform="translate(0.16,163.46)" d="M0.7071067811865476,0A0.7071067811865476,0.7071067811865476,0,1,1,-0.7071067811865476,0A0.7071067811865476,0.7071067811865476,0,1,1,0.7071067811865476,0" fill="blue"/><path transform="translate(207.38,93.62)" d="M0.7071067811865476,0A0.7071067811865476,0.7071067811865476,0,1,1,-0.7071067811865476,0A0.7071067811865476,0.7071067811865476,0,1,1,0.7071067811865476,0" fill="blue"/><path transform="translate(175.69,151.64000000000001)" d="M0.7071067811865476,0A0.7071067811865476,0.7071067811865476,0,1,1,-0.7071067811865476,0A0.7071067811865476,0.7071067811865476,0,1,1,0.7071067811865476,0" fill="blue"/><path transform="translate(251.46,245.48000000000002)" d="M0.7071067811865476,0A0.7071067811865476,0.7071067811865476,0,1,1,-0.7071067811865476,0A0.7071067811865476,0.7071067811865476,0,1,1,0.7071067811865476,0" fill="blue"/><path transform="translate(30.67,116.60000000000001)" d="M0.7071067811865476,0A0.7071067811865476,0.7071067811865476,0,1,1,-0.7071067811865476,0A0.7071067811865476,0.7071067811865476,0,1,1,0.7071067811865476,0" fill="blue"/><path transform="translate(16.63,222.55)" d="M0.7071067811865476,0A0.7071067811865476,0.7071067811865476,0,1,1,-0.7071067811865476,0A0.7071067811865476,0.7071067811865476,0,1,1,0.7071067811865476,0" fill="blue"/><path transform="translate(51.99,11.73)" d="M0.7071067811865476,0A0.7071067811865476,0.7071067811865476,0,1,1,-0.7071067811865476,0A0.7071067811865476,0.7071067811865476,0,1,1,0.7071067811865476,0" fill="blue"/><path transform="translate(29.94,113.89)" d="M0.7071067811865476,0A0.7071067811865476,0.7071067811865476,0,1,1,-0.7071067811865476,0A0.7071067811865476,0.7071067811865476,0,1,1,0.7071067811865476,0" fill="blue"/><path transform="translate(202.03,169.18)" d="M0.7071067811865476,0A0.7071067811865476,0.7071067811865476,0,1,1,-0.7071067811865476,0A0.7071067811865476,0.7071067811865476,0,1,1,0.7071067811865476,0" fill="blue"/><path transform="translate(129.4,189.67000000000002)" d="M0.7071067811865476,0A0.7071067811865476,0.7071067811865476,0,1,1,-0.7071067811865476,0A0.7071067811865476,0.7071067811865476,0,1,1,0.7071067811865476,0" fill="blue"/><path transform="translate(203.94,248.73000000000002)" d="M0.7071067811865476,0A0.7071067811865476,0.7071067811865476,0,1,1,-0.7071067811865476,0A0.7071067811865476,0.7071067811865476,0,1,1,0.7071067811865476,0" fill="blue"/><path transform="translate(189.05,151.97)" d="M0.7071067811865476,0A0.7071067811865476,0.7071067811865476,0,1,1,-0.7071067811865476,0A0.7071067811865476,0.7071067811865476,0,1,1,0.7071067811865476,0" fill="blue"/><path transform="translate(4.09,247.89000000000001)" d="M0.7071067811865476,0A0.7071067811865476,0.7071067811865476,0,1,1,-0.7071067811865476,0A0.7071067811865476,0.7071067811865476,0,1,1,0.7071067811865476,0" fill="blue"/><path transform="translate(190.81,79.64)" d="M0.7071067811865476,0A0.7071067811865476,0.7071067811865476,0,1,1,-0.7071067811865476,0A0.7071067811865476,0.7071067811865476,0,1,1,0.7071067811865476,0" fill="blue"/><path transform="translate(247.32,36.800000000000004)" d="M0.7071067811865476,0A0.7071067811865476,0.7071067811865476,0,1,1,-0.7071067811865476,0A0.7071067811865476,0.7071067811865476,0,1,1,0.7071067811865476,0" fill="blue"/><path transform="translate(146.25,199.48000000000002)" d="M0.7071067811865476,0A0.7071067811865476,0.7071067811865476,0,1,1,-0.7071067811865476,0A0.7071067811865476,0.7071067811865476,0,1,1,0.7071067811865476,0" fill="blue"/><path transform="translate(9.53,104.25)" d="M0.7071067811865476,0A0.7071067811865476,0.7071067811865476,0,1,1,-0.7071067811865476,0A0.7071067811865476,0.7071067811865476,0,1,1,0.7071067811865476,0" fill="blue"/><path transform="translate(198.39000000000001,113.86)" d="M0.7071067811865476,0A0.7071067811865476,0.7071067811865476,0,1,1,-0.7071067811865476,0A0.7071067811865476,0.7071067811865476,0,1,1,0.7071067811865476,0" fill="blue"/><path transform="translate(243.52,165.15)" d="M0.7071067811865476,0A0.7071067811865476,0.7071067811865476,0,1,1,-0.7071067811865476,0A0.7071067811865476,0.7071067811865476,0,1,1,0.7071067811865476,0" fill="blue"/><path transform="translate(183.36,165.34)" d="M0.7071067811865476,0A0.7071067811865476,0.7071067811865476,0,1,1,-0.7071067811865476,0A0.7071067811865476,0.7071067811865476,0,1,1,0.7071067811865476,0" fill="blue"/><path transform="translate(224.05,245.39000000000001)" d="M0.7071067811865476,0A0.7071067811865476,0.7071067811865476,0,1,1,-0.7071067811865476,0A0.7071067811865476,0.7071067811865476,0,1,1,0.7071067811865476,0" fill="blue"/><path transform="translate(59.46,210.19)" d="M0.7071067811865476,0A0.7071067811865476,0.7071067811865476,0,1,1,-0.7071067811865476,0A0.7071067811865476,0.7071067811865476,0,1,1,0.7071067811865476,0" fill="blue"/><path transform="translate(101.76,147.96)" d="M0.7071067811865476,0A0.7071067811865476,0.7071067811865476,0,1,1,-0.7071067811865476,0A0.7071067811865476,0.7071067811865476,0,1,1,0.7071067811865476,0" fill="blue"/><path transform="translate(214.5,34.76)" d="M0.7071067811865476,0A0.7071067811865476,0.7071067811865476,0,1,1,-0.7071067811865476,0A0.7071067811865476,0.7071067811865476,0,1,1,0.7071067811865476,0" fill="blue"/><path transform="translate(110.22,24.48)" d="M0.7071067811865476,0A0.7071067811865476,0.7071067811865476,0,1,1,-0.7071067811865476,0A0.7071067811865476,0.7071067811865476,0,1,1,0.7071067811865476,0" fill="blue"/><path transform="translate(90.49,241.76)" d="M0.7071067811865476,0A0.7071067811865476,0.7071067811865476,0,1,1,-0.7071067811865476,0A0.7071067811865476,0.7071067811865476,0,1,1,0.7071067811865476,0" fill="blue"/><path transform="translate(252.87,28.64)" d="M0.7071067811865476,0A0.7071067811865476,0.7071067811865476,0,1,1,-0.7071067811865476,0A0.7071067811865476,0.7071067811865476,0,1,1,0.7071067811865476,0" fill="blue"/><path transform="translate(134.23,28.64)" d="M0.7071067811865476,0A0.7071067811865476,0.7071067811865476,0,1,1,-0.7071067811865476,0A0.7071067811865476,0.7071067811865476,0,1,1,0.7071067811865476,0" fill="blue"/><path transform="translate(249.74,134.26)" d="M0.7071067811865476,0A0.7071067811865476,0.7071067811865476,0,1,1,-0.7071067811865476,0A0.7071067811865476,0.7071067811865476,0,1,1,0.7071067811865476,0" fill="blue"/><path transform="translate(15.35,154.1)" d="M0.7071067811865476,0A0.7071067811865476,0.7071067811865476,0,1,1,-0.7071067811865476,0A0.7071067811865476,0.7071067811865476,0,1,1,0.7071067811865476,0" fill="blue"/><path transform="translate(1.6300000000000001,182.5)" d="M0.7071067811865476,0A0.7071067811865476,0.7071067811865476,0,1,1,-0.7071067811865476,0A0.7071067811865476,0.7071067811865476,0,1,1,0.7071067811865476,0" fill="blue"/><path transform="translate(142.81,1.82)" d="M0.7071067811865476,0A0.7071067811865476,0.7071067811865476,0,1,1,-0.7071067811865476,0A0.7071067811865476,0.7071067811865476,0,1,1,0.7071067811865476,0" fill="blue"/><path transform="translate(127.51,228.6)" d="M0.7071067811865476,0A0.7071067811865476,0.7071067811865476,0,1,1,-0.7071067811865476,0A0.7071067811865476,0.7071067811865476,0,1,1,0.7071067811865476,0" fill="blue"/><path transform="translate(112.64,87.81)" d="M0.7071067811865476,0A0.7071067811865476,0.7071067811865476,0,1,1,-0.7071067811865476,0A0.7071067811865476,0.7071067811865476,0,1,1,0.7071067811865476,0" fill="blue"/><path transform="translate(150.32,235.04)" d="M0.7071067811865476,0A0.7071067811865476,0.7071067811865476,0,1,1,-0.7071067811865476,0A0.7071067811865476,0.7071067811865476,0,1,1,0.7071067811865476,0" fill="blue"/><path transform="translate(189.77,206.78)" d="M0.7071067811865476,0A0.7071067811865476,0.7071067811865476,0,1,1,-0.7071067811865476,0A0.7071067811865476,0.7071067811865476,0,1,1,0.7071067811865476,0" fill="blue"/><path transform="translate(135.3,21.740000000000002)" d="M0.7071067811865476,0A0.7071067811865476,0.7071067811865476,0,1,1,-0.7071067811865476,0A0.7071067811865476,0.7071067811865476,0,1,1,0.7071067811865476,0" fill="blue"/><path transform="translate(194.76,207.76)" d="M0.7071067811865476,0A0.7071067811865476,0.7071067811865476,0,1,1,-0.7071067811865476,0A0.7071067811865476,0.7071067811865476,0,1,1,0.7071067811865476,0" fill="blue"/><path transform="translate(39.59,9.3)" d="M0.7071067811865476,0A0.7071067811865476,0.7071067811865476,0,1,1,-0.7071067811865476,0A0.7071067811865476,0.7071067811865476,0,1,1,0.7071067811865476,0" fill="blue"/><path transform="translate(116.72,161.22)" d="M0.7071067811865476,0A0.7071067811865476,0.7071067811865476,0,1,1,-0.7071067811865476,0A0.7071067811865476,0.7071067811865476,0,1,1,0.7071067811865476,0" fill="blue"/><path transform="translate(40.61,103.91)" d="M0.7071067811865476,0A0.7071067811865476,0.7071067811865476,0,1,1,-0.7071067811865476,0A0.7071067811865476,0.7071067811865476,0,1,1,0.7071067811865476,0" fill="blue"/><path transform="translate(30.09,235.39000000000001)" d="M0.7071067811865476,0A0.7071067811865476,0.7071067811865476,0,1,1,-0.7071067811865476,0A0.7071067811865476,0.7071067811865476,0,1,1,0.7071067811865476,0" fill="blue"/><path transform="translate(143.46,168.04)" d="M0.7071067811865476,0A0.7071067811865476,0.7071067811865476,0,1,1,-0.7071067811865476,0A0.7071067811865476,0.7071067811865476,0,1,1,0.7071067811865476,0" fill="blue"/><path transform="translate(221.69,76.66)" d="M0.7071067811865476,0A0.7071067811865476,0.7071067811865476,0,1,1,-0.7071067811865476,0A0.7071067811865476,0.7071067811865476,0,1,1,0.7071067811865476,0" fill="blue"/><path transform="translate(3.73,9.4)" d="M0.7071067811865476,0A0.7071067811865476,0.7071067811865476,0,1,1,-0.7071067811865476,0A0.7071067811865476,0.7071067811865476,0,1,1,0.7071067811865476,0" fill="blue"/><path transform="translate(150.93,53.63)" d="M0.7071067811865476,0A0.7071067811865476,0.7071067811865476,0,1,1,-0.7071067811865476,0A0.7071067811865476,0.7071067811865476,0,1,1,0.7071067811865476,0" fill="blue"/><path transform="translate(183.25,167.86)" d="M0.7071067811865476,0A0.7071067811865476,0.7071067811865476,0,1,1,-0.7071067811865476,0A0.7071067811865476,0.7071067811865476,0,1,1,0.7071067811865476,0" fill="blue"/><path transform="translate(18.56,163.07)" d="M0.7071067811865476,0A0.7071067811865476,0.7071067811865476,0,1,1,-0.7071067811865476,0A0.7071067811865476,0.7071067811865476,0,1,1,0.7071067811865476,0" fill="blue"/><path transform="translate(147.83,30.67)" d="M0.7071067811865476,0A0.7071067811865476,0.7071067811865476,0,1,1,-0.7071067811865476,0A0.7071067811865476,0.7071067811865476,0,1,1,0.7071067811865476,0" fill="blue"/><path transform="translate(86.45,215.26)" d="M0.7071067811865476,0A0.7071067811865476,0.7071067811865476,0,1,1,-0.7071067811865476,0A0.7071067811865476,0.7071067811865476,0,1,1,0.7071067811865476,0" fill="blue"/><path transform="translate(123.31,186.88)" d="M0.7071067811865476,0A0.7071067811865476,0.7071067811865476,0,1,1,-0.7071067811865476,0A0.7071067811865476,0.7071067811865476,0,1,1,0.7071067811865476,0" fill="blue"/><path transform="translate(206.98000000000002,28.47)" d="M0.7071067811865476,0A0.7071067811865476,0.7071067811865476,0,1,1,-0.7071067811865476,0A0.7071067811865476,0.7071067811865476,0,1,1,0.7071067811865476,0" fill="blue"/><path transform="translate(2.19,177.05)" d="M0.7071067811865476,0A0.7071067811865476,0.7071067811865476,0,1,1,-0.7071067811865476,0A0.7071067811865476,0.7071067811865476,0,1,1,0.7071067811865476,0" fill="blue"/><path transform="translate(142.05,44.17)" d="M0.7071067811865476,0A0.7071067811865476,0.7071067811865476,0,1,1,-0.7071067811865476,0A0.7071067811865476,0.7071067811865476,0,1,1,0.7071067811865476,0" fill="blue"/><path transform="translate(63.870000000000005,88.85000000000001)" d="M0.7071067811865476,0A0.7071067811865476,0.7071067811865476,0,1,1,-0.7071067811865476,0A0.7071067811865476,0.7071067811865476,0,1,1,0.7071067811865476,0" fill="blue"/><path transform="translate(176.17000000000002,224.29)" d="M0.7071067811865476,0A0.7071067811865476,0.7071067811865476,0,1,1,-0.7071067811865476,0A0.7071067811865476,0.7071067811865476,0,1,1,0.7071067811865476,0" fill="blue"/><path transform="translate(191.55,206.21)" d="M0.7071067811865476,0A0.7071067811865476,0.7071067811865476,0,1,1,-0.7071067811865476,0A0.7071067811865476,0.7071067811865476,0,1,1,0.7071067811865476,0" fill="blue"/><path transform="translate(142.29,127.55)" d="M0.7071067811865476,0A0.7071067811865476,0.7071067811865476,0,1,1,-0.7071067811865476,0A0.7071067811865476,0.7071067811865476,0,1,1,0.7071067811865476,0" fill="blue"/><path transform="translate(86.11,248.79)" d="M0.7071067811865476,0A0.7071067811865476,0.7071067811865476,0,1,1,-0.7071067811865476,0A0.7071067811865476,0.7071067811865476,0,1,1,0.7071067811865476,0" fill="blue"/><path transform="translate(24.060000000000002,121.96000000000001)" d="M0.7071067811865476,0A0.7071067811865476,0.7071067811865476,0,1,1,-0.7071067811865476,0A0.7071067811865476,0.7071067811865476,0,1,1,0.7071067811865476,0" fill="blue"/><path transform="translate(155.47,72.12)" d="M0.7071067811865476,0A0.7071067811865476,0.7071067811865476,0,1,1,-0.7071067811865476,0A0.7071067811865476,0.7071067811865476,0,1,1,0.7071067811865476,0" fill="blue"/><path transform="translate(70.71000000000001,38.93)" d="M0.7071067811865476,0A0.7071067811865476,0.7071067811865476,0,1,1,-0.7071067811865476,0A0.7071067811865476,0.7071067811865476,0,1,1,0.7071067811865476,0" fill="blue"/><path transform="translate(254.07,186.69)" d="M0.7071067811865476,0A0.7071067811865476,0.7071067811865476,0,1,1,-0.7071067811865476,0A0.7071067811865476,0.7071067811865476,0,1,1,0.7071067811865476,0" fill="blue"/><path transform="translate(121.36,96.72)" d="M0.7071067811865476,0A0.7071067811865476,0.7071067811865476,0,1,1,-0.7071067811865476,0A0.7071067811865476,0.7071067811865476,0,1,1,0.7071067811865476,0" fill="blue"/><path transform="translate(60.79,121.37)" d="M0.7071067811865476,0A0.7071067811865476,0.7071067811865476,0,1,1,-0.7071067811865476,0A0.7071067811865476,0.7071067811865476,0,1,1,0.7071067811865476,0" fill="blue"/><path transform="translate(101.86,136.62)" d="M0.7071067811865476,0A0.7071067811865476,0.7071067811865476,0,1,1,-0.7071067811865476,0A0.7071067811865476,0.7071067811865476,0,1,1,0.7071067811865476,0" fill="blue"/><path transform="translate(235.18,103.51)" d="M0.7071067811865476,0A0.7071067811865476,0.7071067811865476,0,1,1,-0.7071067811865476,0A0.7071067811865476,0.7071067811865476,0,1,1,0.7071067811865476,0" fill="blue"/><path transform="translate(194.56,159.46)" d="M0.7071067811865476,0A0.7071067811865476,0.7071067811865476,0,1,1,-0.7071067811865476,0A0.7071067811865476,0.7071067811865476,0,1,1,0.7071067811865476,0" fill="blue"/><path transform="translate(136,189.31)" d="M0.7071067811865476,0A0.7071067811865476,0.7071067811865476,0,1,1,-0.7071067811865476,0A0.7071067811865476,0.7071067811865476,0,1,1,0.7071067811865476,0" fill="blue"/><path transform="translate(47.160000000000004,142.97)" d="M0.7071067811865476,0A0.7071067811865476,0.7071067811865476,0,1,1,-0.7071067811865476,0A0.7071067811865476,0.7071067811865476,0,1,1,0.7071067811865476,0" fill="blue"/><path transform="translate(232.17000000000002,96.10000000000001)" d="M0.7071067811865476,0A0.7071067811865476,0.7071067811865476,0,1,1,-0.7071067811865476,0A0.7071067811865476,0.7071067811865476,0,1,1,0.7071067811865476,0" fill="blue"/><path transform="translate(216.06,212.48000000000002)" d="M0.7071067811865476,0A0.7071067811865476,0.7071067811865476,0,1,1,-0.7071067811865476,0A0.7071067811865476,0.7071067811865476,0,1,1,0.7071067811865476,0" fill="blue"/><path transform="translate(215.38,179.78)" d="M0.7071067811865476,0A0.7071067811865476,0.7071067811865476,0,1,1,-0.7071067811865476,0A0.7071067811865476,0.7071067811865476,0,1,1,0.7071067811865476,0" fill="blue"/><path transform="translate(245.03,239.88)" d="M0.7071067811865476,0A0.7071067811865476,0.7071067811865476,0,1,1,-0.7071067811865476,0A0.7071067811865476,0.7071067811865476,0,1,1,0.7071067811865476,0" fill="blue"/><path transform="translate(153.49,250.4)" d="M0.7071067811865476,0A0.7071067811865476,0.7071067811865476,0,1,1,-0.7071067811865476,0A0.7071067811865476,0.7071067811865476,0,1,1,0.7071067811865476,0" fill="blue"/><path transform="translate(38.86,238.15)" d="M0.7071067811865476,0A0.7071067811865476,0.7071067811865476,0,1,1,-0.7071067811865476,0A0.7071067811865476,0.7071067811865476,0,1,1,0.7071067811865476,0" fill="blue"/><path transform="translate(103.91,205.61)" d="M0.7071067811865476,0A0.7071067811865476,0.7071067811865476,0,1,1,-0.7071067811865476,0A0.7071067811865476,0.7071067811865476,0,1,1,0.7071067811865476,0" fill="blue"/><path transform="translate(232.03,211.09)" d="M0.7071067811865476,0A0.7071067811865476,0.7071067811865476,0,1,1,-0.7071067811865476,0A0.7071067811865476,0.7071067811865476,0,1,1,0.7071067811865476,0" fill="blue"/><path transform="translate(119.67,173.09)" d="M0.7071067811865476,0A0.7071067811865476,0.7071067811865476,0,1,1,-0.7071067811865476,0A0.7071067811865476,0.7071067811865476,0,1,1,0.7071067811865476,0" fill="blue"/><path transform="translate(123.96000000000001,150.15)" d="M0.7071067811865476,0A0.7071067811865476,0.7071067811865476,0,1,1,-0.7071067811865476,0A0.7071067811865476,0.7071067811865476,0,1,1,0.7071067811865476,0" fill="blue"/><path transform="translate(206.06,159.3)" d="M0.7071067811865476,0A0.7071067811865476,0.7071067811865476,0,1,1,-0.7071067811865476,0A0.7071067811865476,0.7071067811865476,0,1,1,0.7071067811865476,0" fill="blue"/><path transform="translate(165.51,136.99)" d="M0.7071067811865476,0A0.7071067811865476,0.7071067811865476,0,1,1,-0.7071067811865476,0A0.7071067811865476,0.7071067811865476,0,1,1,0.7071067811865476,0" fill="blue"/><path transform="translate(173.12,82.61)" d="M0.7071067811865476,0A0.7071067811865476,0.7071067811865476,0,1,1,-0.7071067811865476,0A0.7071067811865476,0.7071067811865476,0,1,1,0.7071067811865476,0" fill="blue"/><path transform="translate(6.93,99.45)" d="M0.7071067811865476,0A0.7071067811865476,0.7071067811865476,0,1,1,-0.7071067811865476,0A0.7071067811865476,0.7071067811865476,0,1,1,0.7071067811865476,0" fill="blue"/><path transform="translate(201.39000000000001,126.86)" d="M0.7071067811865476,0A0.7071067811865476,0.7071067811865476,0,1,1,-0.7071067811865476,0A0.7071067811865476,0.7071067811865476,0,1,1,0.7071067811865476,0" fill="blue"/><path transform="translate(81.54,68.59)" d="M0.7071067811865476,0A0.7071067811865476,0.7071067811865476,0,1,1,-0.7071067811865476,0A0.7071067811865476,0.7071067811865476,0,1,1,0.7071067811865476,0" fill="blue"/><path transform="translate(47.980000000000004,226.34)" d="M0.7071067811865476,0A0.7071067811865476,0.7071067811865476,0,1,1,-0.7071067811865476,0A0.7071067811865476,0.7071067811865476,0,1,1,0.7071067811865476,0" fill="blue"/><path transform="translate(228.82,34.56)" d="M0.7071067811865476,0A0.7071067811865476,0.7071067811865476,0,1,1,-0.7071067811865476,0A0.7071067811865476,0.7071067811865476,0,1,1,0.7071067811865476,0" fill="blue"/><path transform="translate(221.39000000000001,72.26)" d="M0.7071067811865476,0A0.7071067811865476,0.7071067811865476,0,1,1,-0.7071067811865476,0A0.7071067811865476,0.7071067811865476,0,1,1,0.7071067811865476,0" fill="blue"/><path transform="translate(155.13,253.52)" d="M0.7071067811865476,0A0.7071067811865476,0.7071067811865476,0,1,1,-0.7071067811865476,0A0.7071067811865476,0.7071067811865476,0,1,1,0.7071067811865476,0" fill="blue"/><path transform="translate(84.56,99.28)" d="M0.7071067811865476,0A0.7071067811865476,0.7071067811865476,0,1,1,-0.7071067811865476,0A0.7071067811865476,0.7071067811865476,0,1,1,0.7071067811865476,0" fill="blue"/><path transform="translate(130.06,149.61)" d="M0.7071067811865476,0A0.7071067811865476,0.7071067811865476,0,1,1,-0.7071067811865476,0A0.7071067811865476,0.7071067811865476,0,1,1,0.7071067811865476,0" fill="blue"/><path transform="translate(49.75,175.09)" d="M0.7071067811865476,0A0.7071067811865476,0.7071067811865476,0,1,1,-0.7071067811865476,0A0.7071067811865476,0.7071067811865476,0,1,1,0.7071067811865476,0" fill="blue"/><path transform="translate(189.05,39.15)" d="M0.7071067811865476,0A0.7071067811865476,0.7071067811865476,0,1,1,-0.7071067811865476,0A0.7071067811865476,0.7071067811865476,0,1,1,0.7071067811865476,0" fill="blue"/><path transform="translate(47.06,245.19)" d="M0.7071067811865476,0A0.7071067811865476,0.7071067811865476,0,1,1,-0.7071067811865476,0A0.7071067811865476,0.7071067811865476,0,1,1,0.7071067811865476,0" fill="blue"/><path transform="translate(168.29,74.72)" d="M0.7071067811865476,0A0.7071067811865476,0.7071067811865476,0,1,1,-0.7071067811865476,0A0.7071067811865476,0.7071067811865476,0,1,1,0.7071067811865476,0" fill="blue"/><path transform="translate(155.86,96.13)" d="M0.7071067811865476,0A0.7071067811865476,0.7071067811865476,0,1,1,-0.7071067811865476,0A0.7071067811865476,0.7071067811865476,0,1,1,0.7071067811865476,0" fill="blue"/><path transform="translate(29.86,169.69)" d="M0.7071067811865476,0A0.7071067811865476,0.7071067811865476,0,1,1,-0.7071067811865476,0A0.7071067811865476,0.7071067811865476,0,1,1,0.7071067811865476,0" fill="blue"/><path transform="translate(152.93,232.13)" d="M0.7071067811865476,0A0.7071067811865476,0.7071067811865476,0,1,1,-0.7071067811865476,0A0.7071067811865476,0.7071067811865476,0,1,1,0.7071067811865476,0" fill="blue"/><path transform="translate(148.48,17.94)" d="M0.7071067811865476,0A0.7071067811865476,0.7071067811865476,0,1,1,-0.7071067811865476,0A0.7071067811865476,0.7071067811865476,0,1,1,0.7071067811865476,0" fill="blue"/><path transform="translate(123.77,39.660000000000004)" d="M0.7071067811865476,0A0.7071067811865476,0.7071067811865476,0,1,1,-0.7071067811865476,0A0.7071067811865476,0.7071067811865476,0,1,1,0.7071067811865476,0" fill="blue"/><path transform="translate(79.99,173.87)" d="M0.7071067811865476,0A0.7071067811865476,0.7071067811865476,0,1,1,-0.7071067811865476,0A0.7071067811865476,0.7071067811865476,0,1,1,0.7071067811865476,0" fill="blue"/><path transform="translate(148.69,157.95000000000002)" d="M0.7071067811865476,0A0.7071067811865476,0.7071067811865476,0,1,1,-0.7071067811865476,0A0.7071067811865476,0.7071067811865476,0,1,1,0.7071067811865476,0" fill="blue"/><path transform="translate(66.39,180.05)" d="M0.7071067811865476,0A0.7071067811865476,0.7071067811865476,0,1,1,-0.7071067811865476,0A0.7071067811865476,0.7071067811865476,0,1,1,0.7071067811865476,0" fill="blue"/><path transform="translate(105.23,70.14)" d="M0.7071067811865476,0A0.7071067811865476,0.7071067811865476,0,1,1,-0.7071067811865476,0A0.7071067811865476,0.7071067811865476,0,1,1,0.7071067811865476,0" fill="blue"/><path transform="translate(3.9,92.29)" d="M0.7071067811865476,0A0.7071067811865476,0.7071067811865476,0,1,1,-0.7071067811865476,0A0.7071067811865476,0.7071067811865476,0,1,1,0.7071067811865476,0" fill="blue"/><path transform="translate(18.59,137.26)" d="M0.7071067811865476,0A0.7071067811865476,0.7071067811865476,0,1,1,-0.7071067811865476,0A0.7071067811865476,0.7071067811865476,0,1,1,0.7071067811865476,0" fill="blue"/><path transform="translate(124.03,109.18)" d="M0.7071067811865476,0A0.7071067811865476,0.7071067811865476,0,1,1,-0.7071067811865476,0A0.7071067811865476,0.7071067811865476,0,1,1,0.7071067811865476,0" fill="blue"/><path transform="translate(167.6,120.26)" d="M0.7071067811865476,0A0.7071067811865476,0.7071067811865476,0,1,1,-0.7071067811865476,0A0.7071067811865476,0.7071067811865476,0,1,1,0.7071067811865476,0" fill="blue"/><path transform="translate(185.95000000000002,98.82000000000001)" d="M0.7071067811865476,0A0.7071067811865476,0.7071067811865476,0,1,1,-0.7071067811865476,0A0.7071067811865476,0.7071067811865476,0,1,1,0.7071067811865476,0" fill="blue"/><path transform="translate(169.95000000000002,76.84)" d="M0.7071067811865476,0A0.7071067811865476,0.7071067811865476,0,1,1,-0.7071067811865476,0A0.7071067811865476,0.7071067811865476,0,1,1,0.7071067811865476,0" fill="blue"/><path transform="translate(138.63,147.24)" d="M0.7071067811865476,0A0.7071067811865476,0.7071067811865476,0,1,1,-0.7071067811865476,0A0.7071067811865476,0.7071067811865476,0,1,1,0.7071067811865476,0" fill="blue"/><path transform="translate(26.35,64.79)" d="M0.7071067811865476,0A0.7071067811865476,0.7071067811865476,0,1,1,-0.7071067811865476,0A0.7071067811865476,0.7071067811865476,0,1,1,0.7071067811865476,0" fill="blue"/><path transform="translate(100.43,187.81)" d="M0.7071067811865476,0A0.7071067811865476,0.7071067811865476,0,1,1,-0.7071067811865476,0A0.7071067811865476,0.7071067811865476,0,1,1,0.7071067811865476,0" fill="blue"/><path transform="translate(237.71,252.68)" d="M0.7071067811865476,0A0.7071067811865476,0.7071067811865476,0,1,1,-0.7071067811865476,0A0.7071067811865476,0.7071067811865476,0,1,1,0.7071067811865476,0" fill="blue"/><path transform="translate(136.97,101.71000000000001)" d="M0.7071067811865476,0A0.7071067811865476,0.7071067811865476,0,1,1,-0.7071067811865476,0A0.7071067811865476,0.7071067811865476,0,1,1,0.7071067811865476,0" fill="blue"/><path transform="translate(194.99,52.45)" d="M0.7071067811865476,0A0.7071067811865476,0.7071067811865476,0,1,1,-0.7071067811865476,0A0.7071067811865476,0.7071067811865476,0,1,1,0.7071067811865476,0" fill="blue"/><path transform="translate(44.14,197.25)" d="M0.7071067811865476,0A0.7071067811865476,0.7071067811865476,0,1,1,-0.7071067811865476,0A0.7071067811865476,0.7071067811865476,0,1,1,0.7071067811865476,0" fill="blue"/><path transform="translate(164.99,118.29)" d="M0.7071067811865476,0A0.7071067811865476,0.7071067811865476,0,1,1,-0.7071067811865476,0A0.7071067811865476,0.7071067811865476,0,1,1,0.7071067811865476,0" fill="blue"/><path transform="translate(102.59,126.86)" d="M0.7071067811865476,0A0.7071067811865476,0.7071067811865476,0,1,1,-0.7071067811865476,0A0.7071067811865476,0.7071067811865476,0,1,1,0.7071067811865476,0" fill="blue"/><path transform="translate(149.19,86.75)" d="M0.7071067811865476,0A0.7071067811865476,0.7071067811865476,0,1,1,-0.7071067811865476,0A0.7071067811865476,0.7071067811865476,0,1,1,0.7071067811865476,0" fill="blue"/><path transform="translate(59.65,187.41)" d="M0.7071067811865476,0A0.7071067811865476,0.7071067811865476,0,1,1,-0.7071067811865476,0A0.7071067811865476,0.7071067811865476,0,1,1,0.7071067811865476,0" fill="blue"/><path transform="translate(34.4,6.45)" d="M0.7071067811865476,0A0.7071067811865476,0.7071067811865476,0,1,1,-0.7071067811865476,0A0.7071067811865476,0.7071067811865476,0,1,1,0.7071067811865476,0" fill="blue"/><path transform="translate(101.72,221.53)" d="M0.7071067811865476,0A0.7071067811865476,0.7071067811865476,0,1,1,-0.7071067811865476,0A0.7071067811865476,0.7071067811865476,0,1,1,0.7071067811865476,0" fill="blue"/><path transform="translate(0.6900000000000001,252.73000000000002)" d="M0.7071067811865476,0A0.7071067811865476,0.7071067811865476,0,1,1,-0.7071067811865476,0A0.7071067811865476,0.7071067811865476,0,1,1,0.7071067811865476,0" fill="blue"/><path transform="translate(215.37,146.27)" d="M0.7071067811865476,0A0.7071067811865476,0.7071067811865476,0,1,1,-0.7071067811865476,0A0.7071067811865476,0.7071067811865476,0,1,1,0.7071067811865476,0" fill="blue"/><path transform="translate(40.51,138.70000000000002)" d="M0.7071067811865476,0A0.7071067811865476,0.7071067811865476,0,1,1,-0.7071067811865476,0A0.7071067811865476,0.7071067811865476,0,1,1,0.7071067811865476,0" fill="blue"/><path transform="translate(192.84,125.3)" d="M0.7071067811865476,0A0.7071067811865476,0.7071067811865476,0,1,1,-0.7071067811865476,0A0.7071067811865476,0.7071067811865476,0,1,1,0.7071067811865476,0" fill="blue"/><path transform="translate(91.67,110.89)" d="M0.7071067811865476,0A0.7071067811865476,0.7071067811865476,0,1,1,-0.7071067811865476,0A0.7071067811865476,0.7071067811865476,0,1,1,0.7071067811865476,0" fill="blue"/><path transform="translate(43.43,115.61)" d="M0.7071067811865476,0A0.7071067811865476,0.7071067811865476,0,1,1,-0.7071067811865476,0A0.7071067811865476,0.7071067811865476,0,1,1,0.7071067811865476,0" fill="blue"/><path transform="translate(232.76,189.64000000000001)" d="M0.7071067811865476,0A0.7071067811865476,0.7071067811865476,0,1,1,-0.7071067811865476,0A0.7071067811865476,0.7071067811865476,0,1,1,0.7071067811865476,0" fill="blue"/><path transform="translate(69.74,72.71000000000001)" d="M0.7071067811865476,0A0.7071067811865476,0.7071067811865476,0,1,1,-0.7071067811865476,0A0.7071067811865476,0.7071067811865476,0,1,1,0.7071067811865476,0" fill="blue"/><path transform="translate(224.69,130.15)" d="M0.7071067811865476,0A0.7071067811865476,0.7071067811865476,0,1,1,-0.7071067811865476,0A0.7071067811865476,0.7071067811865476,0,1,1,0.7071067811865476,0" fill="blue"/><path transform="translate(213.70000000000002,243)" d="M0.7071067811865476,0A0.7071067811865476,0.7071067811865476,0,1,1,-0.7071067811865476,0A0.7071067811865476,0.7071067811865476,0,1,1,0.7071067811865476,0" fill="blue"/><path transform="translate(239.85,65.15)" d="M0.7071067811865476,0A0.7071067811865476,0.7071067811865476,0,1,1,-0.7071067811865476,0A0.7071067811865476,0.7071067811865476,0,1,1,0.7071067811865476,0" fill="blue"/><path transform="translate(230.42000000000002,74.58)" d="M0.7071067811865476,0A0.7071067811865476,0.7071067811865476,0,1,1,-0.7071067811865476,0A0.7071067811865476,0.7071067811865476,0,1,1,0.7071067811865476,0" fill="blue"/><path transform="translate(212.25,224.96)" d="M0.7071067811865476,0A0.7071067811865476,0.7071067811865476,0,1,1,-0.7071067811865476,0A0.7071067811865476,0.7071067811865476,0,1,1,0.7071067811865476,0" fill="blue"/><path transform="translate(89.95,248.83)" d="M0.7071067811865476,0A0.7071067811865476,0.7071067811865476,0,1,1,-0.7071067811865476,0A0.7071067811865476,0.7071067811865476,0,1,1,0.7071067811865476,0" fill="blue"/><path transform="translate(120.76,189.19)" d="M0.7071067811865476,0A0.7071067811865476,0.7071067811865476,0,1,1,-0.7071067811865476,0A0.7071067811865476,0.7071067811865476,0,1,1,0.7071067811865476,0" fill="blue"/><path transform="translate(125.96000000000001,181.18)" d="M0.7071067811865476,0A0.7071067811865476,0.7071067811865476,0,1,1,-0.7071067811865476,0A0.7071067811865476,0.7071067811865476,0,1,1,0.7071067811865476,0" fill="blue"/><path transform="translate(126.60000000000001,175.13)" d="M0.7071067811865476,0A0.7071067811865476,0.7071067811865476,0,1,1,-0.7071067811865476,0A0.7071067811865476,0.7071067811865476,0,1,1,0.7071067811865476,0" fill="blue"/><path transform="translate(37.480000000000004,210.05)" d="M0.7071067811865476,0A0.7071067811865476,0.7071067811865476,0,1,1,-0.7071067811865476,0A0.7071067811865476,0.7071067811865476,0,1,1,0.7071067811865476,0" fill="blue"/><path transform="translate(131.17000000000002,4.64)" d="M0.7071067811865476,0A0.7071067811865476,0.7071067811865476,0,1,1,-0.7071067811865476,0A0.7071067811865476,0.7071067811865476,0,1,1,0.7071067811865476,0" fill="blue"/><path transform="translate(157.38,27.63)" d="M0.7071067811865476,0A0.7071067811865476,0.7071067811865476,0,1,1,-0.7071067811865476,0A0.7071067811865476,0.7071067811865476,0,1,1,0.7071067811865476,0" fill="blue"/><path transform="translate(156.33,54.27)" d="M0.7071067811865476,0A0.7071067811865476,0.7071067811865476,0,1,1,-0.7071067811865476,0A0.7071067811865476,0.7071067811865476,0,1,1,0.7071067811865476,0" fill="blue"/><path transform="translate(77.33,134.21)" d="M0.7071067811865476,0A0.7071067811865476,0.7071067811865476,0,1,1,-0.7071067811865476,0A0.7071067811865476,0.7071067811865476,0,1,1,0.7071067811865476,0" fill="blue"/><path transform="translate(92.78,75.71000000000001)" d="M0.7071067811865476,0A0.7071067811865476,0.7071067811865476,0,1,1,-0.7071067811865476,0A0.7071067811865476,0.7071067811865476,0,1,1,0.7071067811865476,0" fill="blue"/><path transform="translate(239.47,73.42)" d="M0.7071067811865476,0A0.7071067811865476,0.7071067811865476,0,1,1,-0.7071067811865476,0A0.7071067811865476,0.7071067811865476,0,1,1,0.7071067811865476,0" fill="blue"/><path transform="translate(139.74,52.9)" d="M0.7071067811865476,0A0.7071067811865476,0.7071067811865476,0,1,1,-0.7071067811865476,0A0.7071067811865476,0.7071067811865476,0,1,1,0.7071067811865476,0" fill="blue"/><path transform="translate(42.34,57.800000000000004)" d="M0.7071067811865476,0A0.7071067811865476,0.7071067811865476,0,1,1,-0.7071067811865476,0A0.7071067811865476,0.7071067811865476,0,1,1,0.7071067811865476,0" fill="blue"/><path transform="translate(198.19,150.69)" d="M0.7071067811865476,0A0.7071067811865476,0.7071067811865476,0,1,1,-0.7071067811865476,0A0.7071067811865476,0.7071067811865476,0,1,1,0.7071067811865476,0" fill="blue"/><path transform="translate(121.60000000000001,215.25)" d="M0.7071067811865476,0A0.7071067811865476,0.7071067811865476,0,1,1,-0.7071067811865476,0A0.7071067811865476,0.7071067811865476,0,1,1,0.7071067811865476,0" fill="blue"/><path transform="translate(38.550000000000004,227.74)" d="M0.7071067811865476,0A0.7071067811865476,0.7071067811865476,0,1,1,-0.7071067811865476,0A0.7071067811865476,0.7071067811865476,0,1,1,0.7071067811865476,0" fill="blue"/><path transform="translate(142.52,143.97)" d="M0.7071067811865476,0A0.7071067811865476,0.7071067811865476,0,1,1,-0.7071067811865476,0A0.7071067811865476,0.7071067811865476,0,1,1,0.7071067811865476,0" fill="blue"/><path transform="translate(203.15,152.48)" d="M0.7071067811865476,0A0.7071067811865476,0.7071067811865476,0,1,1,-0.7071067811865476,0A0.7071067811865476,0.7071067811865476,0,1,1,0.7071067811865476,0" fill="blue"/><path transform="translate(37.25,103.21000000000001)" d="M0.7071067811865476,0A0.7071067811865476,0.7071067811865476,0,1,1,-0.7071067811865476,0A0.7071067811865476,0.7071067811865476,0,1,1,0.7071067811865476,0" fill="blue"/><path transform="translate(227.3,32.81)" d="M0.7071067811865476,0A0.7071067811865476,0.7071067811865476,0,1,1,-0.7071067811865476,0A0.7071067811865476,0.7071067811865476,0,1,1,0.7071067811865476,0" fill="blue"/><path transform="translate(107.01,61.54)" d="M0.7071067811865476,0A0.7071067811865476,0.7071067811865476,0,1,1,-0.7071067811865476,0A0.7071067811865476,0.7071067811865476,0,1,1,0.7071067811865476,0" fill="blue"/><path transform="translate(55.99,115.25)" d="M0.7071067811865476,0A0.7071067811865476,0.7071067811865476,0,1,1,-0.7071067811865476,0A0.7071067811865476,0.7071067811865476,0,1,1,0.7071067811865476,0" fill="blue"/><path transform="translate(175.52,123.84)" d="M0.7071067811865476,0A0.7071067811865476,0.7071067811865476,0,1,1,-0.7071067811865476,0A0.7071067811865476,0.7071067811865476,0,1,1,0.7071067811865476,0" fill="blue"/><path transform="translate(163.41,192.77)" d="M0.7071067811865476,0A0.7071067811865476,0.7071067811865476,0,1,1,-0.7071067811865476,0A0.7071067811865476,0.7071067811865476,0,1,1,0.7071067811865476,0" fill="blue"/><path transform="translate(168.74,28.61)" d="M0.7071067811865476,0A0.7071067811865476,0.7071067811865476,0,1,1,-0.7071067811865476,0A0.7071067811865476,0.7071067811865476,0,1,1,0.7071067811865476,0" fill="blue"/><path transform="translate(27.18,229.99)" d="M0.7071067811865476,0A0.7071067811865476,0.7071067811865476,0,1,1,-0.7071067811865476,0A0.7071067811865476,0.7071067811865476,0,1,1,0.7071067811865476,0" fill="blue"/><path transform="translate(11.88,37.37)" d="M0.7071067811865476,0A0.7071067811865476,0.7071067811865476,0,1,1,-0.7071067811865476,0A0.7071067811865476,0.7071067811865476,0,1,1,0.7071067811865476,0" fill="blue"/><path transform="translate(86.29,76.59)" d="M0.7071067811865476,0A0.7071067811865476,0.7071067811865476,0,1,1,-0.7071067811865476,0A0.7071067811865476,0.7071067811865476,0,1,1,0.7071067811865476,0" fill="blue"/><path transform="translate(54.26,222.97)" d="M0.7071067811865476,0A0.7071067811865476,0.7071067811865476,0,1,1,-0.7071067811865476,0A0.7071067811865476,0.7071067811865476,0,1,1,0.7071067811865476,0" fill="blue"/><path transform="translate(125.60000000000001,150.83)" d="M0.7071067811865476,0A0.7071067811865476,0.7071067811865476,0,1,1,-0.7071067811865476,0A0.7071067811865476,0.7071067811865476,0,1,1,0.7071067811865476,0" fill="blue"/><path transform="translate(23.8,130.06)" d="M0.7071067811865476,0A0.7071067811865476,0.7071067811865476,0,1,1,-0.7071067811865476,0A0.7071067811865476,0.7071067811865476,0,1,1,0.7071067811865476,0" fill="blue"/><path transform="translate(143.21,248.93)" d="M0.7071067811865476,0A0.7071067811865476,0.7071067811865476,0,1,1,-0.7071067811865476,0A0.7071067811865476,0.7071067811865476,0,1,1,0.7071067811865476,0" fill="blue"/><path transform="translate(50.050000000000004,105.84)" d="M0.7071067811865476,0A0.7071067811865476,0.7071067811865476,0,1,1,-0.7071067811865476,0A0.7071067811865476,0.7071067811865476,0,1,1,0.7071067811865476,0" fill="blue"/><path transform="translate(198.39000000000001,245.5)" d="M0.7071067811865476,0A0.7071067811865476,0.7071067811865476,0,1,1,-0.7071067811865476,0A0.7071067811865476,0.7071067811865476,0,1,1,0.7071067811865476,0" fill="blue"/><path transform="translate(74.67,133.15)" d="M0.7071067811865476,0A0.7071067811865476,0.7071067811865476,0,1,1,-0.7071067811865476,0A0.7071067811865476,0.7071067811865476,0,1,1,0.7071067811865476,0" fill="blue"/><path transform="translate(12.790000000000001,7.390000000000001)" d="M0.7071067811865476,0A0.7071067811865476,0.7071067811865476,0,1,1,-0.7071067811865476,0A0.7071067811865476,0.7071067811865476,0,1,1,0.7071067811865476,0" fill="blue"/><path transform="translate(162.96,58.79)" d="M0.7071067811865476,0A0.7071067811865476,0.7071067811865476,0,1,1,-0.7071067811865476,0A0.7071067811865476,0.7071067811865476,0,1,1,0.7071067811865476,0" fill="blue"/><path transform="translate(197.13,28.29)" d="M0.7071067811865476,0A0.7071067811865476,0.7071067811865476,0,1,1,-0.7071067811865476,0A0.7071067811865476,0.7071067811865476,0,1,1,0.7071067811865476,0" fill="blue"/><path transform="translate(88.06,225.19)" d="M0.7071067811865476,0A0.7071067811865476,0.7071067811865476,0,1,1,-0.7071067811865476,0A0.7071067811865476,0.7071067811865476,0,1,1,0.7071067811865476,0" fill="blue"/><path transform="translate(185.74,196.72)" d="M0.7071067811865476,0A0.7071067811865476,0.7071067811865476,0,1,1,-0.7071067811865476,0A0.7071067811865476,0.7071067811865476,0,1,1,0.7071067811865476,0" fill="blue"/><path transform="translate(6.84,132.04)" d="M0.7071067811865476,0A0.7071067811865476,0.7071067811865476,0,1,1,-0.7071067811865476,0A0.7071067811865476,0.7071067811865476,0,1,1,0.7071067811865476,0" fill="blue"/><path transform="translate(116.07000000000001,175.9)" d="M0.7071067811865476,0A0.7071067811865476,0.7071067811865476,0,1,1,-0.7071067811865476,0A0.7071067811865476,0.7071067811865476,0,1,1,0.7071067811865476,0" fill="blue"/><path transform="translate(81.85000000000001,221.38)" d="M0.7071067811865476,0A0.7071067811865476,0.7071067811865476,0,1,1,-0.7071067811865476,0A0.7071067811865476,0.7071067811865476,0,1,1,0.7071067811865476,0" fill="blue"/><path transform="translate(64.23,47.43)" d="M0.7071067811865476,0A0.7071067811865476,0.7071067811865476,0,1,1,-0.7071067811865476,0A0.7071067811865476,0.7071067811865476,0,1,1,0.7071067811865476,0" fill="blue"/><path transform="translate(197.77,0.56)" d="M0.7071067811865476,0A0.7071067811865476,0.7071067811865476,0,1,1,-0.7071067811865476,0A0.7071067811865476,0.7071067811865476,0,1,1,0.7071067811865476,0" fill="blue"/><path transform="translate(138.45000000000002,127.91)" d="M0.7071067811865476,0A0.7071067811865476,0.7071067811865476,0,1,1,-0.7071067811865476,0A0.7071067811865476,0.7071067811865476,0,1,1,0.7071067811865476,0" fill="blue"/><path transform="translate(47.42,106.48)" d="M0.7071067811865476,0A0.7071067811865476,0.7071067811865476,0,1,1,-0.7071067811865476,0A0.7071067811865476,0.7071067811865476,0,1,1,0.7071067811865476,0" fill="blue"/><path transform="translate(185.47,53.96)" d="M0.7071067811865476,0A0.7071067811865476,0.7071067811865476,0,1,1,-0.7071067811865476,0A0.7071067811865476,0.7071067811865476,0,1,1,0.7071067811865476,0" fill="blue"/><path transform="translate(224.07,133.76)" d="M0.7071067811865476,0A0.7071067811865476,0.7071067811865476,0,1,1,-0.7071067811865476,0A0.7071067811865476,0.7071067811865476,0,1,1,0.7071067811865476,0" fill="blue"/><path transform="translate(35.56,9.8)" d="M0.7071067811865476,0A0.7071067811865476,0.7071067811865476,0,1,1,-0.7071067811865476,0A0.7071067811865476,0.7071067811865476,0,1,1,0.7071067811865476,0" fill="blue"/><path transform="translate(92.27,163.06)" d="M0.7071067811865476,0A0.7071067811865476,0.7071067811865476,0,1,1,-0.7071067811865476,0A0.7071067811865476,0.7071067811865476,0,1,1,0.7071067811865476,0" fill="blue"/><path transform="translate(145.33,5.95)" d="M0.7071067811865476,0A0.7071067811865476,0.7071067811865476,0,1,1,-0.7071067811865476,0A0.7071067811865476,0.7071067811865476,0,1,1,0.7071067811865476,0" fill="blue"/><path transform="translate(117.79,38.07)" d="M0.7071067811865476,0A0.7071067811865476,0.7071067811865476,0,1,1,-0.7071067811865476,0A0.7071067811865476,0.7071067811865476,0,1,1,0.7071067811865476,0" fill="blue"/><path transform="translate(113.9,249.22)" d="M0.7071067811865476,0A0.7071067811865476,0.7071067811865476,0,1,1,-0.7071067811865476,0A0.7071067811865476,0.7071067811865476,0,1,1,0.7071067811865476,0" fill="blue"/><path transform="translate(50.74,165.47)" d="M0.7071067811865476,0A0.7071067811865476,0.7071067811865476,0,1,1,-0.7071067811865476,0A0.7071067811865476,0.7071067811865476,0,1,1,0.7071067811865476,0" fill="blue"/><path transform="translate(173.22,136)" d="M0.7071067811865476,0A0.7071067811865476,0.7071067811865476,0,1,1,-0.7071067811865476,0A0.7071067811865476,0.7071067811865476,0,1,1,0.7071067811865476,0" fill="blue"/><path transform="translate(29.54,50.95)" d="M0.7071067811865476,0A0.7071067811865476,0.7071067811865476,0,1,1,-0.7071067811865476,0A0.7071067811865476,0.7071067811865476,0,1,1,0.7071067811865476,0" fill="blue"/><path transform="translate(4.5200000000000005,89.26)" d="M0.7071067811865476,0A0.7071067811865476,0.7071067811865476,0,1,1,-0.7071067811865476,0A0.7071067811865476,0.7071067811865476,0,1,1,0.7071067811865476,0" fill="blue"/><path transform="translate(1.52,161.19)" d="M0.7071067811865476,0A0.7071067811865476,0.7071067811865476,0,1,1,-0.7071067811865476,0A0.7071067811865476,0.7071067811865476,0,1,1,0.7071067811865476,0" fill="blue"/><path transform="translate(30.42,187.6)" d="M0.7071067811865476,0A0.7071067811865476,0.7071067811865476,0,1,1,-0.7071067811865476,0A0.7071067811865476,0.7071067811865476,0,1,1,0.7071067811865476,0" fill="blue"/><path transform="translate(177.86,148.01)" d="M0.7071067811865476,0A0.7071067811865476,0.7071067811865476,0,1,1,-0.7071067811865476,0A0.7071067811865476,0.7071067811865476,0,1,1,0.7071067811865476,0" fill="blue"/><path transform="translate(36.46,237.99)" d="M0.7071067811865476,0A0.7071067811865476,0.7071067811865476,0,1,1,-0.7071067811865476,0A0.7071067811865476,0.7071067811865476,0,1,1,0.7071067811865476,0" fill="blue"/><path transform="translate(174.61,82.94)" d="M0.7071067811865476,0A0.7071067811865476,0.7071067811865476,0,1,1,-0.7071067811865476,0A0.7071067811865476,0.7071067811865476,0,1,1,0.7071067811865476,0" fill="blue"/><path transform="translate(91.99,209.72)" d="M0.7071067811865476,0A0.7071067811865476,0.7071067811865476,0,1,1,-0.7071067811865476,0A0.7071067811865476,0.7071067811865476,0,1,1,0.7071067811865476,0" fill="blue"/><path transform="translate(219.63,162.11)" d="M0.7071067811865476,0A0.7071067811865476,0.7071067811865476,0,1,1,-0.7071067811865476,0A0.7071067811865476,0.7071067811865476,0,1,1,0.7071067811865476,0" fill="blue"/><path transform="translate(29.43,234.03)" d="M0.7071067811865476,0A0.7071067811865476,0.7071067811865476,0,1,1,-0.7071067811865476,0A0.7071067811865476,0.7071067811865476,0,1,1,0.7071067811865476,0" fill="blue"/><path transform="translate(85.7,83.55)" d="M0.7071067811865476,0A0.7071067811865476,0.7071067811865476,0,1,1,-0.7071067811865476,0A0.7071067811865476,0.7071067811865476,0,1,1,0.7071067811865476,0" fill="blue"/><path transform="translate(77.28,65.78)" d="M0.7071067811865476,0A0.7071067811865476,0.7071067811865476,0,1,1,-0.7071067811865476,0A0.7071067811865476,0.7071067811865476,0,1,1,0.7071067811865476,0" fill="blue"/><path transform="translate(71.11,157.33)" d="M0.7071067811865476,0A0.7071067811865476,0.7071067811865476,0,1,1,-0.7071067811865476,0A0.7071067811865476,0.7071067811865476,0,1,1,0.7071067811865476,0" fill="blue"/><path transform="translate(16.830000000000002,228.04)" d="M0.7071067811865476,0A0.7071067811865476,0.7071067811865476,0,1,1,-0.7071067811865476,0A0.7071067811865476,0.7071067811865476,0,1,1,0.7071067811865476,0" fill="blue"/><path transform="translate(29.18,153.41)" d="M0.7071067811865476,0A0.7071067811865476,0.7071067811865476,0,1,1,-0.7071067811865476,0A0.7071067811865476,0.7071067811865476,0,1,1,0.7071067811865476,0" fill="blue"/><path transform="translate(192.72,9.25)" d="M0.7071067811865476,0A0.7071067811865476,0.7071067811865476,0,1,1,-0.7071067811865476,0A0.7071067811865476,0.7071067811865476,0,1,1,0.7071067811865476,0" fill="blue"/><path transform="translate(24.46,200.44)" d="M0.7071067811865476,0A0.7071067811865476,0.7071067811865476,0,1,1,-0.7071067811865476,0A0.7071067811865476,0.7071067811865476,0,1,1,0.7071067811865476,0" fill="blue"/><path transform="translate(149.13,113.81)" d="M0.7071067811865476,0A0.7071067811865476,0.7071067811865476,0,1,1,-0.7071067811865476,0A0.7071067811865476,0.7071067811865476,0,1,1,0.7071067811865476,0" fill="blue"/><path transform="translate(89.84,20.21)" d="M0.7071067811865476,0A0.7071067811865476,0.7071067811865476,0,1,1,-0.7071067811865476,0A0.7071067811865476,0.7071067811865476,0,1,1,0.7071067811865476,0" fill="blue"/><path transform="translate(228.73000000000002,41.52)" d="M0.7071067811865476,0A0.7071067811865476,0.7071067811865476,0,1,1,-0.7071067811865476,0A0.7071067811865476,0.7071067811865476,0,1,1,0.7071067811865476,0" fill="blue"/><path transform="translate(212.42000000000002,228.62)" d="M0.7071067811865476,0A0.7071067811865476,0.7071067811865476,0,1,1,-0.7071067811865476,0A0.7071067811865476,0.7071067811865476,0,1,1,0.7071067811865476,0" fill="blue"/><path transform="translate(111.34,227.95000000000002)" d="M0.7071067811865476,0A0.7071067811865476,0.7071067811865476,0,1,1,-0.7071067811865476,0A0.7071067811865476,0.7071067811865476,0,1,1,0.7071067811865476,0" fill="blue"/><path transform="translate(72.12,87.97)" d="M0.7071067811865476,0A0.7071067811865476,0.7071067811865476,0,1,1,-0.7071067811865476,0A0.7071067811865476,0.7071067811865476,0,1,1,0.7071067811865476,0" fill="blue"/><path transform="translate(216.15,75.97)" d="M0.7071067811865476,0A0.7071067811865476,0.7071067811865476,0,1,1,-0.7071067811865476,0A0.7071067811865476,0.7071067811865476,0,1,1,0.7071067811865476,0" fill="blue"/><path transform="translate(206.91,63.49)" d="M0.7071067811865476,0A0.7071067811865476,0.7071067811865476,0,1,1,-0.7071067811865476,0A0.7071067811865476,0.7071067811865476,0,1,1,0.7071067811865476,0" fill="blue"/><path transform="translate(187.97,124.27)" d="M0.7071067811865476,0A0.7071067811865476,0.7071067811865476,0,1,1,-0.7071067811865476,0A0.7071067811865476,0.7071067811865476,0,1,1,0.7071067811865476,0" fill="blue"/><path transform="translate(223.15,132.43)" d="M0.7071067811865476,0A0.7071067811865476,0.7071067811865476,0,1,1,-0.7071067811865476,0A0.7071067811865476,0.7071067811865476,0,1,1,0.7071067811865476,0" fill="blue"/><path transform="translate(161.98,176.3)" d="M0.7071067811865476,0A0.7071067811865476,0.7071067811865476,0,1,1,-0.7071067811865476,0A0.7071067811865476,0.7071067811865476,0,1,1,0.7071067811865476,0" fill="blue"/><path transform="translate(222.21,37.62)" d="M0.7071067811865476,0A0.7071067811865476,0.7071067811865476,0,1,1,-0.7071067811865476,0A0.7071067811865476,0.7071067811865476,0,1,1,0.7071067811865476,0" fill="blue"/><path transform="translate(205.02,92.31)" d="M0.7071067811865476,0A0.7071067811865476,0.7071067811865476,0,1,1,-0.7071067811865476,0A0.7071067811865476,0.7071067811865476,0,1,1,0.7071067811865476,0" fill="blue"/><path transform="translate(210.6,16.02)" d="M0.7071067811865476,0A0.7071067811865476,0.7071067811865476,0,1,1,-0.7071067811865476,0A0.7071067811865476,0.7071067811865476,0,1,1,0.7071067811865476,0" fill="blue"/><path transform="translate(196.12,63.7)" d="M0.7071067811865476,0A0.7071067811865476,0.7071067811865476,0,1,1,-0.7071067811865476,0A0.7071067811865476,0.7071067811865476,0,1,1,0.7071067811865476,0" fill="blue"/><path transform="translate(27.7,251.9)" d="M0.7071067811865476,0A0.7071067811865476,0.7071067811865476,0,1,1,-0.7071067811865476,0A0.7071067811865476,0.7071067811865476,0,1,1,0.7071067811865476,0" fill="blue"/><path transform="translate(24.57,144.21)" d="M0.7071067811865476,0A0.7071067811865476,0.7071067811865476,0,1,1,-0.7071067811865476,0A0.7071067811865476,0.7071067811865476,0,1,1,0.7071067811865476,0" fill="blue"/><path transform="translate(149,30.94)" d="M0.7071067811865476,0A0.7071067811865476,0.7071067811865476,0,1,1,-0.7071067811865476,0A0.7071067811865476,0.7071067811865476,0,1,1,0.7071067811865476,0" fill="blue"/><path transform="translate(168.05,128.39000000000001)" d="M0.7071067811865476,0A0.7071067811865476,0.7071067811865476,0,1,1,-0.7071067811865476,0A0.7071067811865476,0.7071067811865476,0,1,1,0.7071067811865476,0" fill="blue"/><path transform="translate(43.9,1.05)" d="M0.7071067811865476,0A0.7071067811865476,0.7071067811865476,0,1,1,-0.7071067811865476,0A0.7071067811865476,0.7071067811865476,0,1,1,0.7071067811865476,0" fill="blue"/><path transform="translate(162.81,90.62)" d="M0.7071067811865476,0A0.7071067811865476,0.7071067811865476,0,1,1,-0.7071067811865476,0A0.7071067811865476,0.7071067811865476,0,1,1,0.7071067811865476,0" fill="blue"/><path transform="translate(217.93,183.31)" d="M0.7071067811865476,0A0.7071067811865476,0.7071067811865476,0,1,1,-0.7071067811865476,0A0.7071067811865476,0.7071067811865476,0,1,1,0.7071067811865476,0" fill="blue"/><path transform="translate(98.84,128.64000000000001)" d="M0.7071067811865476,0A0.7071067811865476,0.7071067811865476,0,1,1,-0.7071067811865476,0A0.7071067811865476,0.7071067811865476,0,1,1,0.7071067811865476,0" fill="blue"/><path transform="translate(59.69,241.67000000000002)" d="M0.7071067811865476,0A0.7071067811865476,0.7071067811865476,0,1,1,-0.7071067811865476,0A0.7071067811865476,0.7071067811865476,0,1,1,0.7071067811865476,0" fill="blue"/><path transform="translate(129.77,217.91)" d="M0.7071067811865476,0A0.7071067811865476,0.7071067811865476,0,1,1,-0.7071067811865476,0A0.7071067811865476,0.7071067811865476,0,1,1,0.7071067811865476,0" fill="blue"/><path transform="translate(215.13,183.69)" d="M0.7071067811865476,0A0.7071067811865476,0.7071067811865476,0,1,1,-0.7071067811865476,0A0.7071067811865476,0.7071067811865476,0,1,1,0.7071067811865476,0" fill="blue"/><path transform="translate(12.34,199.12)" d="M0.7071067811865476,0A0.7071067811865476,0.7071067811865476,0,1,1,-0.7071067811865476,0A0.7071067811865476,0.7071067811865476,0,1,1,0.7071067811865476,0" fill="blue"/><path transform="translate(0.75,104.5)" d="M0.7071067811865476,0A0.7071067811865476,0.7071067811865476,0,1,1,-0.7071067811865476,0A0.7071067811865476,0.7071067811865476,0,1,1,0.7071067811865476,0" fill="blue"/><path transform="translate(47.230000000000004,200.69)" d="M0.7071067811865476,0A0.7071067811865476,0.7071067811865476,0,1,1,-0.7071067811865476,0A0.7071067811865476,0.7071067811865476,0,1,1,0.7071067811865476,0" fill="blue"/><path transform="translate(4.15,96.57000000000001)" d="M0.7071067811865476,0A0.7071067811865476,0.7071067811865476,0,1,1,-0.7071067811865476,0A0.7071067811865476,0.7071067811865476,0,1,1,0.7071067811865476,0" fill="blue"/><path transform="translate(99.86,122.82000000000001)" d="M0.7071067811865476,0A0.7071067811865476,0.7071067811865476,0,1,1,-0.7071067811865476,0A0.7071067811865476,0.7071067811865476,0,1,1,0.7071067811865476,0" fill="blue"/><path transform="translate(35.92,183.58)" d="M0.7071067811865476,0A0.7071067811865476,0.7071067811865476,0,1,1,-0.7071067811865476,0A0.7071067811865476,0.7071067811865476,0,1,1,0.7071067811865476,0" fill="blue"/><path transform="translate(83.13,48.800000000000004)" d="M0.7071067811865476,0A0.7071067811865476,0.7071067811865476,0,1,1,-0.7071067811865476,0A0.7071067811865476,0.7071067811865476,0,1,1,0.7071067811865476,0" fill="blue"/><path transform="translate(160.86,220.13)" d="M0.7071067811865476,0A0.7071067811865476,0.7071067811865476,0,1,1,-0.7071067811865476,0A0.7071067811865476,0.7071067811865476,0,1,1,0.7071067811865476,0" fill="blue"/><path transform="translate(170.26,249.82)" d="M0.7071067811865476,0A0.7071067811865476,0.7071067811865476,0,1,1,-0.7071067811865476,0A0.7071067811865476,0.7071067811865476,0,1,1,0.7071067811865476,0" fill="blue"/><path transform="translate(180.18,153.32)" d="M0.7071067811865476,0A0.7071067811865476,0.7071067811865476,0,1,1,-0.7071067811865476,0A0.7071067811865476,0.7071067811865476,0,1,1,0.7071067811865476,0" fill="blue"/><path transform="translate(166.4,127.27)" d="M0.7071067811865476,0A0.7071067811865476,0.7071067811865476,0,1,1,-0.7071067811865476,0A0.7071067811865476,0.7071067811865476,0,1,1,0.7071067811865476,0" fill="blue"/><path transform="translate(191.41,20.94)" d="M0.7071067811865476,0A0.7071067811865476,0.7071067811865476,0,1,1,-0.7071067811865476,0A0.7071067811865476,0.7071067811865476,0,1,1,0.7071067811865476,0" fill="blue"/><path transform="translate(195.93,150.37)" d="M0.7071067811865476,0A0.7071067811865476,0.7071067811865476,0,1,1,-0.7071067811865476,0A0.7071067811865476,0.7071067811865476,0,1,1,0.7071067811865476,0" fill="blue"/><path transform="translate(179.55,9.84)" d="M0.7071067811865476,0A0.7071067811865476,0.7071067811865476,0,1,1,-0.7071067811865476,0A0.7071067811865476,0.7071067811865476,0,1,1,0.7071067811865476,0" fill="blue"/><path transform="translate(76.89,42.2)" d="M0.7071067811865476,0A0.7071067811865476,0.7071067811865476,0,1,1,-0.7071067811865476,0A0.7071067811865476,0.7071067811865476,0,1,1,0.7071067811865476,0" fill="blue"/><path transform="translate(53.9,128.99)" d="M0.7071067811865476,0A0.7071067811865476,0.7071067811865476,0,1,1,-0.7071067811865476,0A0.7071067811865476,0.7071067811865476,0,1,1,0.7071067811865476,0" fill="blue"/><path transform="translate(237.55,26.080000000000002)" d="M0.7071067811865476,0A0.7071067811865476,0.7071067811865476,0,1,1,-0.7071067811865476,0A0.7071067811865476,0.7071067811865476,0,1,1,0.7071067811865476,0" fill="blue"/><path transform="translate(117.59,123.09)" d="M0.7071067811865476,0A0.7071067811865476,0.7071067811865476,0,1,1,-0.7071067811865476,0A0.7071067811865476,0.7071067811865476,0,1,1,0.7071067811865476,0" fill="blue"/><path transform="translate(19.96,233.66)" d="M0.7071067811865476,0A0.7071067811865476,0.7071067811865476,0,1,1,-0.7071067811865476,0A0.7071067811865476,0.7071067811865476,0,1,1,0.7071067811865476,0" fill="blue"/><path transform="translate(156.55,16.76)" d="M0.7071067811865476,0A0.7071067811865476,0.7071067811865476,0,1,1,-0.7071067811865476,0A0.7071067811865476,0.7071067811865476,0,1,1,0.7071067811865476,0" fill="blue"/><path transform="translate(183.95000000000002,16.26)" d="M0.7071067811865476,0A0.7071067811865476,0.7071067811865476,0,1,1,-0.7071067811865476,0A0.7071067811865476,0.7071067811865476,0,1,1,0.7071067811865476,0" fill="blue"/><path transform="translate(107.46000000000001,77.9)" d="M0.7071067811865476,0A0.7071067811865476,0.7071067811865476,0,1,1,-0.7071067811865476,0A0.7071067811865476,0.7071067811865476,0,1,1,0.7071067811865476,0" fill="blue"/><path transform="translate(79.69,68.64)" d="M0.7071067811865476,0A0.7071067811865476,0.7071067811865476,0,1,1,-0.7071067811865476,0A0.7071067811865476,0.7071067811865476,0,1,1,0.7071067811865476,0" fill="blue"/><path transform="translate(231.37,8.52)" d="M0.7071067811865476,0A0.7071067811865476,0.7071067811865476,0,1,1,-0.7071067811865476,0A0.7071067811865476,0.7071067811865476,0,1,1,0.7071067811865476,0" fill="blue"/><path transform="translate(107.28,145.81)" d="M0.7071067811865476,0A0.7071067811865476,0.7071067811865476,0,1,1,-0.7071067811865476,0A0.7071067811865476,0.7071067811865476,0,1,1,0.7071067811865476,0" fill="blue"/><path transform="translate(136.43,127.23)" d="M0.7071067811865476,0A0.7071067811865476,0.7071067811865476,0,1,1,-0.7071067811865476,0A0.7071067811865476,0.7071067811865476,0,1,1,0.7071067811865476,0" fill="blue"/><path transform="translate(140.82,168.02)" d="M0.7071067811865476,0A0.7071067811865476,0.7071067811865476,0,1,1,-0.7071067811865476,0A0.7071067811865476,0.7071067811865476,0,1,1,0.7071067811865476,0" fill="blue"/><path transform="translate(125.32000000000001,143.84)" d="M0.7071067811865476,0A0.7071067811865476,0.7071067811865476,0,1,1,-0.7071067811865476,0A0.7071067811865476,0.7071067811865476,0,1,1,0.7071067811865476,0" fill="blue"/><path transform="translate(167.98,16.38)" d="M0.7071067811865476,0A0.7071067811865476,0.7071067811865476,0,1,1,-0.7071067811865476,0A0.7071067811865476,0.7071067811865476,0,1,1,0.7071067811865476,0" fill="blue"/><path transform="translate(20.28,248.59)" d="M0.7071067811865476,0A0.7071067811865476,0.7071067811865476,0,1,1,-0.7071067811865476,0A0.7071067811865476,0.7071067811865476,0,1,1,0.7071067811865476,0" fill="blue"/><path transform="translate(68.18,214.38)" d="M0.7071067811865476,0A0.7071067811865476,0.7071067811865476,0,1,1,-0.7071067811865476,0A0.7071067811865476,0.7071067811865476,0,1,1,0.7071067811865476,0" fill="blue"/><path transform="translate(182.28,63.24)" d="M0.7071067811865476,0A0.7071067811865476,0.7071067811865476,0,1,1,-0.7071067811865476,0A0.7071067811865476,0.7071067811865476,0,1,1,0.7071067811865476,0" fill="blue"/></g></g><path class="foreground" aria-hidden="true" d="" display="none"/></g></g></g></svg>